<svg xmlns="http://www.w3.org/2000/svg" viewBox="0 0 792 612"><defs><style>.cls-1{fill:#dd5068;}.cls-2,.cls-3{fill:#231f20;}.cls-3{font-size:94.31px;font-family:Chuck;letter-spacing:0.1em;}</style></defs><g id="main"><path class="cls-1" d="M516.17,354.74a36.52,36.52,0,0,1-32.43-19.45L445.9,264.66l-3.43,7.71A36.86,36.86,0,0,1,374,269.64l-30-85.19L311,293a36.7,36.7,0,0,1-35.15,26.14h-.12a36.68,36.68,0,0,1-35.2-25.91l-16-51.27L188.36,306a36.93,36.93,0,0,1-32.09,18.71H95.81V285.22h58.94l38.43-68a36.86,36.86,0,0,1,67.28,7.19l15.23,48.93,32.85-108A36.33,36.33,0,0,1,343,139.23h.87a36.31,36.31,0,0,1,34.7,24.6l30.51,86.51,2.93-6.6a36.87,36.87,0,0,1,66.17-2.41L516,311.84,528.21,283a36.81,36.81,0,0,1,33.93-22.46H663.27V300h-99.4l-13.71,32.29a36.57,36.57,0,0,1-32.26,22.43Z"/><circle class="cls-1" cx="95.81" cy="304.98" r="19.72"/><circle class="cls-1" cx="679.22" cy="278.66" r="36.69"/><circle class="cls-2" cx="692.18" cy="265.3" r="9.51"/><text class="cls-3" transform="translate(94.53 454.58)">EARWORM</text></g></svg>